<?xml version="1.0" standalone="no"?>
<!DOCTYPE svg PUBLIC "-//W3C//DTD SVG 20010904//EN"
 "http://www.w3.org/TR/2001/REC-SVG-20010904/DTD/svg10.dtd">
<svg version="1.0" xmlns="http://www.w3.org/2000/svg"
 width="512.000000pt" height="512.000000pt" viewBox="0 0 512.000000 512.000000"
 preserveAspectRatio="xMidYMid meet">
<metadata>
Created by potrace 1.14, written by Peter Selinger 2001-2017
</metadata>
<g transform="translate(0.000000,512.000000) scale(0.100000,-0.100000)"
fill="#000000" stroke="none">
<path d="M2495 4786 c-99 -43 -123 -186 -45 -261 l30 -29 0 -487 0 -487 -39
-4 -40 -3 -3 142 -3 143 -237 237 -236 238 -6 55 c-18 156 -196 202 -290 76
-29 -38 -29 -134 0 -173 36 -48 71 -68 126 -69 l51 -2 218 -218 219 -219 0
-116 0 -116 -77 -28 c-43 -15 -93 -35 -111 -46 -18 -10 -37 -19 -43 -19 -5 0
-9 61 -9 145 0 159 -10 197 -52 209 -13 3 -154 6 -315 6 l-291 0 -34 34 c-63
63 -167 59 -227 -9 -73 -84 -38 -221 65 -255 62 -21 140 3 184 55 11 13 49 15
261 15 l249 0 0 -160 0 -160 -160 -160 -160 -160 -79 0 -79 0 -4 140 c-2 118
-6 142 -21 157 -16 17 -49 18 -408 21 l-391 3 -24 29 c-96 114 -294 17 -270
-132 9 -53 20 -72 60 -103 66 -50 158 -41 217 21 l22 24 329 0 328 0 0 -80 0
-80 -102 -1 c-169 -1 -218 -9 -332 -50 -233 -85 -417 -278 -496 -524 -20 -60
-24 -97 -28 -268 l-4 -197 298 0 299 0 24 -46 c32 -60 101 -119 181 -158 58
-27 75 -30 160 -31 86 0 101 3 160 31 81 38 128 78 175 149 l36 55 116 0 116
0 -21 -22 c-11 -13 -155 -157 -320 -321 l-299 -299 -51 -2 c-90 -3 -147 -63
-147 -155 1 -89 49 -144 138 -156 92 -13 166 50 173 147 l3 52 361 361 c198
198 360 368 360 378 0 15 13 17 120 17 l120 0 0 -223 0 -223 -180 -179 c-169
-169 -182 -179 -213 -177 -49 5 -100 -20 -133 -64 -24 -32 -29 -47 -29 -95 1
-97 57 -153 154 -154 48 0 63 5 95 29 44 33 68 82 64 132 -2 33 8 45 189 227
105 106 196 202 202 214 7 14 11 108 11 267 l0 246 40 0 40 0 0 -686 0 -687
-34 -38 c-65 -71 -58 -172 15 -231 62 -51 144 -49 204 3 67 59 72 160 9 228
l-34 38 0 687 0 686 40 0 39 0 3 -340 3 -340 198 -198 199 -199 3 -52 c4 -92
62 -145 155 -146 94 0 153 56 157 150 1 46 -3 60 -27 94 -37 50 -61 63 -124
67 l-49 2 -179 179 -178 178 0 302 0 303 160 0 160 0 0 -126 c0 -72 5 -135 11
-147 6 -12 114 -125 239 -252 l228 -230 5 -53 c8 -93 64 -146 157 -147 98 0
155 57 155 155 -1 93 -54 151 -146 155 l-52 3 -219 219 -218 218 0 102 0 103
98 0 98 0 16 -32 c31 -65 96 -126 176 -165 72 -36 81 -38 171 -38 116 1 181
25 265 98 54 47 126 165 126 208 0 23 5 24 195 44 83 9 164 18 180 20 17 2 57
6 90 10 33 3 70 8 83 11 l23 5 -3 407 -3 407 -27 50 c-36 67 -89 119 -151 148
-29 13 -245 88 -482 167 -236 78 -433 145 -437 149 -4 4 52 66 125 139 l134
133 51 3 c91 4 147 64 147 155 -1 97 -58 154 -155 155 -47 1 -63 -4 -93 -27
-47 -35 -58 -58 -63 -120 -2 -27 -6 -52 -9 -56 -3 -3 -78 -78 -166 -167 l-160
-161 -87 18 c-79 17 -152 27 -252 34 -19 2 -110 4 -202 4 l-168 1 0 103 0 103
255 254 c250 249 256 255 303 261 64 8 94 22 125 58 60 72 44 175 -36 235 -20
15 -43 20 -86 21 -48 0 -64 -5 -94 -28 -47 -36 -59 -60 -63 -121 l-2 -49 -281
-282 -281 -281 0 -137 0 -137 -40 0 -40 0 0 486 0 486 34 40 c114 133 -21 323
-179 254z"/>
</g>
</svg>
